<?xml version="1.0" encoding="UTF-8" standalone="no"?>
<svg
   xmlns:dc="http://purl.org/dc/elements/1.1/"
   xmlns:cc="http://creativecommons.org/ns#"
   xmlns:rdf="http://www.w3.org/1999/02/22-rdf-syntax-ns#"
   xmlns:svg="http://www.w3.org/2000/svg"
   xmlns="http://www.w3.org/2000/svg"
   id="svg103"
   height="50.808468mm"
   width="87.587669mm"
   version="1.0">
  <metadata
     id="metadata107">
    <rdf:RDF>
      <cc:Work
         rdf:about="">
        <dc:format>image/svg+xml</dc:format>
        <dc:type
           rdf:resource="http://purl.org/dc/dcmitype/StillImage" />
      </cc:Work>
    </rdf:RDF>
  </metadata>
  <defs
     id="defs3">
    <pattern
       y="0"
       x="0"
       height="6"
       width="6"
       patternUnits="userSpaceOnUse"
       id="EMFhbasepattern" />
  </defs>
  <path
     id="path5"
     d="  M 199.66667,191   C 199.66667,179.66667 199.66667,179.66667 199.66667,179.66667   C 200,179.66667 200.33333,179.66667 200.33333,179.66667   C 203,179.66667 204.66667,179 206.33333,177.66667   C 208,176.33333 209.33333,174.33333 210,171.66667   C 225,174 225,174 225,174   C 223,179.66667 220,183.66667 216,186.66667   C 211.66667,189.33333 206.66667,191 200.33333,191   C 200,191 200,191 199.66667,191   z  M 199.66667,165.66667   C 199.66667,156.33333 199.66667,156.33333 199.66667,156.33333   C 211,156.33333 211,156.33333 211,156.33333   C 210.66667,152 209.66667,148.66667 207.66667,146.33333   C 205.33333,144 202.66667,143 199.66667,143   C 199.66667,143 199.66667,143 199.66667,143   C 199.66667,131.33333 199.66667,131.33333 199.66667,131.33333   C 207.66667,131.66667 214,134.66667 219,140   C 223.66667,145.66667 226,154 226,165.66667   C 199.66667,165.66667 199.66667,165.66667 199.66667,165.66667   z  M 247,132.66667   C 261,132.66667 261,132.66667 261,132.66667   C 261,140.66667 261,140.66667 261,140.66667   C 266,134.66667 272,131.33333 278.66667,131.33333   C 282.33333,131.33333 285.66667,132.33333 288.33333,133.66667   C 291,135.33333 293,137.66667 294.66667,140.66667   C 297.33333,137.66667 300,135.33333 303,133.66667   C 306,132.33333 309,131.33333 312.33333,131.33333   C 316.33333,131.33333 320,132.33333 322.66667,134   C 325.66667,135.66667 327.66667,138.33333 329.33333,141.66667   C 330.33333,144 330.66667,148 330.66667,153.33333   C 330.66667,189.66667 330.66667,189.66667 330.66667,189.66667   C 315.66667,189.66667 315.66667,189.66667 315.66667,189.66667   C 315.66667,157 315.66667,157 315.66667,157   C 315.66667,151.33333 315.33333,148 314.33333,146.33333   C 313,144 310.66667,143 307.66667,143   C 305.66667,143 303.66667,143.66667 301.66667,145   C 300,146.33333 298.66667,148.33333 298,150.33333   C 297,153 296.66667,157 296.66667,162.33333   C 296.66667,189.66667 296.66667,189.66667 296.66667,189.66667   C 281.66667,189.66667 281.66667,189.66667 281.66667,189.66667   C 281.66667,158.33333 281.66667,158.33333 281.66667,158.33333   C 281.66667,153 281.33333,149.33333 280.66667,147.66667   C 280.33333,146.33333 279.33333,145 278.33333,144.33333   C 277,143.33333 275.66667,143 273.66667,143   C 271.33333,143 269.33333,143.66667 267.33333,145   C 265.66667,146.33333 264.33333,148 263.33333,150.33333   C 262.66667,152.66667 262,156.66667 262,162   C 262,189.66667 262,189.66667 262,189.66667   C 247,189.66667 247,189.66667 247,189.66667   z  M 76.666667,124.66667   C 66,134.66667 66,134.66667 66,134.66667   C 59,127.33333 50.666667,123.66667 42,123.66667   C 34.333333,123.66667 28,126 23,131.33333   C 17.666667,136.33333 15,142.66667 15,150.33333   C 15,155.33333 16.333333,160 18.666667,164   C 20.666667,168 24,171.33333 28.333333,173.66667   C 32.333333,176 37,177.33333 42,177.33333   C 46.333333,177.33333 50.333333,176.33333 54,174.66667   C 57.666667,173 61.666667,170.33333 66,166   C 76,176.66667 76,176.66667 76,176.66667   C 70.333333,182.33333 64.666667,186 59.666667,188.33333   C 54.333333,190.66667 48.666667,191.66667 42,191.66667   C 29.666667,191.66667 19.666667,187.66667 11.666667,180   C 4,172.33333 0,162.33333 0,150.33333   C 0,142.33333 2,135.33333 5.3333333,129.33333   C 9,123 14,118.33333 20.666667,114.33333   C 27.333333,110.66667 34.333333,109 42,109   C 48.666667,109 55,110.33333 61,113   C 67,115.66667 72,119.66667 76.666667,124.66667   z  M 199.66667,131.33333   C 199.66667,143 199.66667,143 199.66667,143   C 196.33333,143 193.66667,144.33333 191.66667,146.66667   C 189.33333,149 188.33333,152.33333 188.33333,156.33333   C 199.66667,156.33333 199.66667,156.33333 199.66667,156.33333   C 199.66667,165.66667 199.66667,165.66667 199.66667,165.66667   C 188.33333,165.66667 188.33333,165.66667 188.33333,165.66667   C 188.33333,170 189.33333,173.33333 191.66667,176   C 194,178.33333 196.66667,179.33333 199.66667,179.66667   C 199.66667,191 199.66667,191 199.66667,191   C 190,190.66667 183,187.66667 178.33333,181.33333   C 174.66667,176 172.66667,169.66667 172.66667,161.66667   C 172.66667,152 175.33333,144.66667 180,139.66667   C 185,134.33333 191.33333,131.33333 198.66667,131.33333   C 199,131.33333 199.33333,131.33333 199.66667,131.33333   z  M 115,111   C 115,140 115,140 115,140   C 120,134.33333 125.66667,131.33333 132.33333,131.33333   C 136,131.33333 139,132 141.66667,133.66667   C 144.66667,134.66667 146.66667,136.33333 148,138.33333   C 149.33333,140.33333 150.33333,142.66667 151,145   C 151.33333,147.33333 151.66667,151 151.66667,156.33333   C 151.66667,189.66667 151.66667,189.66667 151.66667,189.66667   C 136.66667,189.66667 136.66667,189.66667 136.66667,189.66667   C 136.66667,159.66667 136.66667,159.66667 136.66667,159.66667   C 136.66667,153.66667 136.33333,150 135.66667,148.33333   C 135.33333,146.66667 134.33333,145.33333 132.66667,144.33333   C 131.33333,143.33333 129.66667,143 127.33333,143   C 125,143 122.66667,143.66667 120.66667,144.66667   C 118.66667,146 117.33333,148 116.33333,150.33333   C 115.33333,152.66667 115,156.33333 115,161   C 115,189.66667 115,189.66667 115,189.66667   C 100,189.66667 100,189.66667 100,189.66667   C 100,111 100,111 100,111   z "
     style="fill:#1d82d9;fill-rule:nonzero;fill-opacity:1;stroke:none;" />
  <path
     id="path7"
     d="  M 264,34   C 261.66667,31 259.33333,28 257,25.333333   C 250.66667,31.333333 250.66667,31.333333 250.66667,31.333333   C 250.66667,40 250.66667,40 250.66667,40   C 251,40.666667 251.33333,41.333333 251.66667,42   C 264,34 264,34 264,34   z  M 250.66667,25   C 250.66667,18.666667 250.66667,18.666667 250.66667,18.666667   C 251.66667,19.666667 253,20.666667 254,22   z  M 250.66667,31.333333   C 247,34.333333 247,34.333333 247,34.333333   C 248.33333,36 249.33333,38 250.66667,40   C 250.66667,31.333333 250.66667,31.333333 250.66667,31.333333   z  M 250.66667,18.666667   C 250.66667,25 250.66667,25 250.66667,25   C 244.66667,30.666667 244.66667,30.666667 244.66667,30.666667   C 243.66667,29.333333 242.66667,28.333333 241.66667,27   C 241.66667,21.666667 241.66667,21.666667 241.66667,21.666667   C 247,15.333333 247,15.333333 247,15.333333   C 248,16.333333 249.33333,17.333333 250.66667,18.666667   z  M 241.66667,15.666667   C 244,13 244,13 244,13   C 243.33333,12.333333 242.66667,11.666667 241.66667,11.333333   z  M 241.66667,11.333333   C 241.66667,15.666667 241.66667,15.666667 241.66667,15.666667   C 237,22 237,22 237,22   C 235.33333,20.333333 233.66667,19 232,17.666667   C 232,15 232,15 232,15   C 236,7.6666667 236,7.6666667 236,7.6666667   C 238,8.6666667 240,10 241.66667,11.333333   z  M 241.66667,21.666667   C 239.66667,24.666667 239.66667,24.666667 239.66667,24.666667   C 240.33333,25.333333 241,26.333333 241.66667,27   C 241.66667,21.666667 241.66667,21.666667 241.66667,21.666667   z  M 232,7.6666667   C 233,6 233,6 233,6   C 232.66667,5.6666667 232.33333,5.3333333 232,5.3333333   z  M 232,5.3333333   C 232,7.6666667 232,7.6666667 232,7.6666667   C 227.66667,15 227.66667,15 227.66667,15   C 225.66667,13.666667 223.66667,13 221.66667,12   C 224.33333,2.3333333 224.33333,2.3333333 224.33333,2.3333333   C 227,3 229.33333,4 232,5.3333333   z  M 232,15   C 232,17.666667 232,17.666667 232,17.666667   C 231.66667,17.333333 231,17.333333 230.66667,17   C 232,15 232,15 232,15   z  M 221,1.3333333   C 218,0.66666667 215,0.33333333 212.33333,0   C 210.66667,9.6666667 210.66667,9.6666667 210.66667,9.6666667   C 213.33333,10 215.66667,10.333333 218.33333,11   C 221,1.3333333 221,1.3333333 221,1.3333333   z  M 208.66667,0   C 206,0 203.66667,0.33333333 201,1   C 199.66667,10.333333 199.66667,10.333333 199.66667,10.333333   C 202,9.6666667 204.66667,9.6666667 207,9.6666667   C 208.66667,0 208.66667,0 208.66667,0   z  M 197.33333,1.6666667   C 194.66667,2.3333333 192,3.6666667 189.33333,5   C 189.33333,13.333333 189.33333,13.333333 189.33333,13.333333   C 191.66667,12.333333 194,11.666667 196.33333,11   C 197.33333,1.6666667 197.33333,1.6666667 197.33333,1.6666667   z  M 186,6.6666667   C 183.33333,8.3333333 181,10.333333 178.33333,12.333333   C 180,18.333333 180,18.333333 180,18.333333   C 182,17 184,16 186,15   C 186,6.6666667 186,6.6666667 186,6.6666667   z  M 175.66667,15   C 173.33333,17.333333 171,20 169.33333,22.666667   C 171,25.666667 171,25.666667 171,25.666667   C 172.66667,23.666667 174.66667,22 177,20.666667   C 175.66667,15 175.66667,15 175.66667,15   z  M 167,26   C 165.33333,28.666667 164,32 162.66667,35   C 164.33333,32.666667 166.33333,30.333333 168.33333,28   z "
     style="fill:#191b1c;fill-rule:evenodd;fill-opacity:1;stroke:none;" />
  <path
     id="path9"
     d="  M 234,84   C 232.33333,85.333333 230.33333,86.666667 228,88   C 225.66667,83.666667 225.66667,83.666667 225.66667,83.666667   C 233.33333,78.666667 233.33333,78.666667 233.33333,78.666667   z "
     style="fill:#1d82d9;fill-rule:evenodd;fill-opacity:1;stroke:none;" />
  <path
     id="path11"
     d="  M 240.66667,76.666667   C 239,79 237,81.333333 235,83   C 234.66667,77.666667 234.66667,77.666667 234.66667,77.666667   C 240.66667,72.666667 240.66667,72.666667 240.66667,72.666667   z "
     style="fill:#1d82d9;fill-rule:evenodd;fill-opacity:1;stroke:none;" />
  <path
     id="path13"
     d="  M 217.66667,91.333333   C 214.33333,91.666667 211.33333,92 207.66667,91.666667   C 205.33333,89.333333 205.33333,89.333333 205.33333,89.333333   C 214,88 214,88 214,88   C 215.33333,89 216.33333,90.333333 217.66667,91.333333   z "
     style="fill:#1d82d9;fill-rule:evenodd;fill-opacity:1;stroke:none;" />
  <path
     id="path15"
     d="  M 233,77.333333   L 224.66667,82.333333   L 222.66667,78.666667   L 232.33333,73   L 233,77.333333  z   "
     style="fill:#1d82d9;fill-rule:evenodd;fill-opacity:1;stroke:none;" />
  <path
     id="path17"
     d="  M 240.66667,70.666667   L 234.66667,76   L 234,71.666667   L 240.33333,66.666667   L 240.66667,70.666667  z   "
     style="fill:#1d82d9;fill-rule:evenodd;fill-opacity:1;stroke:none;" />
  <path
     id="path19"
     d="  M 223.66667,83   L 213.33333,86.666667   L 211.33333,83.666667   L 221.66667,79.666667   L 223.66667,83  z   "
     style="fill:#1d82d9;fill-rule:evenodd;fill-opacity:1;stroke:none;" />
  <path
     id="path21"
     d="  M 221,78.333333   L 210.33333,82.666667   L 207.66667,79.666667   L 219,75   L 221,78.333333  z   "
     style="fill:#1d82d9;fill-rule:evenodd;fill-opacity:1;stroke:none;" />
  <path
     id="path23"
     d="  M 240,65   L 233.33333,70.333333   L 232.33333,66.333333   L 239.66667,61.333333   L 240,65  z   "
     style="fill:#1d82d9;fill-rule:evenodd;fill-opacity:1;stroke:none;" />
  <path
     id="path25"
     d="  M 239,59   L 231.33333,64.333333   L 227.33333,54.666667   L 236,49.333333   L 239,59  z   "
     style="fill:#1d82d9;fill-rule:evenodd;fill-opacity:1;stroke:none;" />
  <path
     id="path27"
     d="  M 246,52.666667   C 240,58 240,58 240,58   C 237,48.666667 237,48.666667 237,48.666667   C 245,43.666667 245,43.666667 245,43.666667   C 246,46.666667 246.33333,50 246,52.666667   z "
     style="fill:#1d82d9;fill-rule:evenodd;fill-opacity:1;stroke:none;" />
  <path
     id="path29"
     d="  M 229.66667,65.333333   L 219.33333,71.333333   L 214,62.333333   L 225.66667,55.666667   L 229.66667,65.333333  z   "
     style="fill:#1d82d9;fill-rule:evenodd;fill-opacity:1;stroke:none;" />
  <path
     id="path31"
     d="  M 217.66667,72.333333   L 206,77.666667   L 200,69   L 212.33333,62.666667   L 217.66667,72.333333  z   "
     style="fill:#1d82d9;fill-rule:evenodd;fill-opacity:1;stroke:none;" />
  <path
     id="path33"
     d="  M 198.66667,86   C 190.33333,86.666667 190.33333,86.666667 190.33333,86.666667   C 189.33333,86 188,85.333333 187.33333,84.333333   C 195.66667,83 195.66667,83 195.66667,83   z "
     style="fill:#1d82d9;fill-rule:evenodd;fill-opacity:1;stroke:none;" />
  <path
     id="path35"
     d="  M 193.66667,81.333333   C 185.33333,82.666667 185.33333,82.666667 185.33333,82.666667   C 183,80.666667 180.66667,78.666667 179,76.333333   C 187.33333,74 187.33333,74 187.33333,74   z "
     style="fill:#1d82d9;fill-rule:evenodd;fill-opacity:1;stroke:none;" />
  <path
     id="path37"
     d="  M 186,72   L 177.66667,74.666667   L 175,71   L 183,67.333333   L 186,72  z   "
     style="fill:#1d82d9;fill-rule:evenodd;fill-opacity:1;stroke:none;" />
  <path
     id="path39"
     d="  M 197,67.333333   L 187.33333,71.333333   L 184.66667,66.666667   L 193.66667,62   L 197,67.333333  z   "
     style="fill:#1d82d9;fill-rule:evenodd;fill-opacity:1;stroke:none;" />
  <path
     id="path41"
     d="  M 211,60.666667   L 198.33333,66.333333   L 195,61   L 208,55   L 211,60.666667  z   "
     style="fill:#1d82d9;fill-rule:evenodd;fill-opacity:1;stroke:none;" />
  <path
     id="path43"
     d="  M 224.66667,53.666667   L 212.66667,59.666667   L 209.66667,54.333333   L 221.66667,48.333333   L 224.66667,53.666667  z   "
     style="fill:#1d82d9;fill-rule:evenodd;fill-opacity:1;stroke:none;" />
  <path
     id="path45"
     d="  M 220.66667,46.333333   L 208.66667,52.666667   L 205.66667,47   L 217.66667,41   L 220.66667,46.333333  z   "
     style="fill:#1d82d9;fill-rule:evenodd;fill-opacity:1;stroke:none;" />
  <path
     id="path47"
     d="  M 231.33333,41   L 222.33333,45.666667   L 219.33333,40.333333   L 229,36.333333   L 231.33333,41  z   "
     style="fill:#1d82d9;fill-rule:evenodd;fill-opacity:1;stroke:none;" />
  <path
     id="path49"
     d="  M 244.66667,41.666667   C 236.33333,47 236.33333,47 236.33333,47   C 233.66667,42.333333 233.66667,42.333333 233.66667,42.333333   C 242.33333,37.666667 242.33333,37.666667 242.33333,37.666667   C 243.33333,39 244,40.333333 244.66667,41.666667   z "
     style="fill:#1d82d9;fill-rule:evenodd;fill-opacity:1;stroke:none;" />
  <path
     id="path51"
     d="  M 241,35.666667   C 232.66667,40 232.66667,40 232.66667,40   C 230.33333,35.666667 230.33333,35.666667 230.33333,35.666667   C 238.33333,32.333333 238.33333,32.333333 238.33333,32.333333   C 239.33333,33.333333 240.33333,34.333333 241,35.666667   z "
     style="fill:#1d82d9;fill-rule:evenodd;fill-opacity:1;stroke:none;" />
  <path
     id="path53"
     d="  M 227.66667,34   L 218,38.333333   L 211.33333,29.333333   L 221.33333,26.666667   L 227.66667,34  z   "
     style="fill:#1d82d9;fill-rule:evenodd;fill-opacity:1;stroke:none;" />
  <path
     id="path55"
     d="  M 229,23   C 220.66667,24 220.66667,24 220.66667,24   C 217.66667,21.666667 217.66667,21.666667 217.66667,21.666667   C 225.66667,20.666667 225.66667,20.666667 225.66667,20.666667   C 227,21.333333 228,22.333333 229,23   z "
     style="fill:#1d82d9;fill-rule:evenodd;fill-opacity:1;stroke:none;" />
  <path
     id="path57"
     d="  M 219.33333,24.333333   L 209.66667,27.333333   L 207,24.333333   L 216,22   L 219.33333,24.333333  z   "
     style="fill:#1d82d9;fill-rule:evenodd;fill-opacity:1;stroke:none;" />
  <path
     id="path59"
     d="  M 208.66667,27.666667   L 197.33333,32.333333   L 195.33333,29   L 205.66667,24.666667   L 208.66667,27.666667  z   "
     style="fill:#1d82d9;fill-rule:evenodd;fill-opacity:1;stroke:none;" />
  <path
     id="path61"
     d="  M 214.66667,21   L 205.66667,23.333333   L 203,20.333333   L 211.66667,18.666667   L 214.66667,21  z   "
     style="fill:#1d82d9;fill-rule:evenodd;fill-opacity:1;stroke:none;" />
  <path
     id="path63"
     d="  M 210,17.333333   C 201.66667,19.333333 201.66667,19.333333 201.66667,19.333333   C 198.33333,16 198.33333,16 198.33333,16   C 201,15.333333 204,15 207.33333,15.333333   z "
     style="fill:#1d82d9;fill-rule:evenodd;fill-opacity:1;stroke:none;" />
  <path
     id="path65"
     d="  M 200.66667,19.333333   C 192,23 192,23 192,23   C 190,19.333333 190,19.333333 190,19.333333   C 192,18 194.66667,17 197.33333,16   z "
     style="fill:#1d82d9;fill-rule:evenodd;fill-opacity:1;stroke:none;" />
  <path
     id="path67"
     d="  M 203.33333,45   L 190,52   L 186.33333,42   L 198,35.333333   L 203.33333,45  z   "
     style="fill:#1d82d9;fill-rule:evenodd;fill-opacity:1;stroke:none;" />
  <path
     id="path69"
     d="  M 196.66667,33   L 185.33333,39.666667   L 184,35.666667   L 194.33333,29.666667   L 196.66667,33  z   "
     style="fill:#1d82d9;fill-rule:evenodd;fill-opacity:1;stroke:none;" />
  <path
     id="path71"
     d="  M 193.66667,28.333333   L 183.66667,34.333333   L 182.66667,30.666667   L 191.66667,25   L 193.66667,28.333333  z   "
     style="fill:#1d82d9;fill-rule:evenodd;fill-opacity:1;stroke:none;" />
  <path
     id="path73"
     d="  M 184.33333,40.333333   L 176.66667,46   L 176,42.666667   L 183,36.333333   L 184.33333,40.333333  z   "
     style="fill:#1d82d9;fill-rule:evenodd;fill-opacity:1;stroke:none;" />
  <path
     id="path75"
     d="  M 182.66667,35   L 175.66667,40.666667   L 175.33333,37.666667   L 182,31.333333   L 182.66667,35  z   "
     style="fill:#1d82d9;fill-rule:evenodd;fill-opacity:1;stroke:none;" />
  <path
     id="path77"
     d="  M 181.33333,30   C 175.33333,36 175.33333,36 175.33333,36   C 175,31.666667 175,31.666667 175,31.666667   C 176.66667,29.666667 178.66667,27.666667 180.66667,25.666667   z "
     style="fill:#1d82d9;fill-rule:evenodd;fill-opacity:1;stroke:none;" />
  <path
     id="path79"
     d="  M 174.66667,42   L 170.33333,46.666667   L 170.66667,43   L 174.33333,38.666667   L 174.66667,42  z   "
     style="fill:#1d82d9;fill-rule:evenodd;fill-opacity:1;stroke:none;" />
  <path
     id="path81"
     d="  M 174.33333,36.333333   C 171,40.333333 171,40.333333 171,40.333333   C 171.66667,38.333333 171.66667,38.333333 171.66667,38.333333   C 172.33333,36.666667 173.33333,35 174.33333,33   z "
     style="fill:#1d82d9;fill-rule:evenodd;fill-opacity:1;stroke:none;" />
  <path
     id="path83"
     d="  M 192.66667,60   L 183.33333,65   L 181,60.333333   L 190,54.666667   L 192.66667,60  z   "
     style="fill:#1d82d9;fill-rule:evenodd;fill-opacity:1;stroke:none;" />
  <path
     id="path85"
     d="  M 182,65.666667   L 174.33333,69.666667   L 172.33333,65.333333   L 179.66667,61   L 182,65.666667  z   "
     style="fill:#1d82d9;fill-rule:evenodd;fill-opacity:1;stroke:none;" />
  <path
     id="path87"
     d="  M 189,52.333333   L 180,58   L 177,48.333333   L 185,42.666667   L 189,52.333333  z   "
     style="fill:#1d82d9;fill-rule:evenodd;fill-opacity:1;stroke:none;" />
  <path
     id="path89"
     d="  M 178.66667,58.666667   C 171.66667,63.666667 171.66667,63.666667 171.66667,63.666667   C 170.66667,60.666667 170,58 169.66667,55   C 175.66667,49.666667 175.66667,49.666667 175.66667,49.666667   z "
     style="fill:#1d82d9;fill-rule:evenodd;fill-opacity:1;stroke:none;" />
  <path
     id="path91"
     d="  M 241.33333,66   L 245.66667,61.666667   L 245.66667,65   L 241.66667,69.666667   L 241.33333,66  z   "
     style="fill:#1d82d9;fill-rule:evenodd;fill-opacity:1;stroke:none;" />
  <path
     id="path93"
     d="  M 241.66667,72   L 245.33333,67.666667   L 244.66667,70.666667   L 241.66667,75   L 241.66667,72  z   "
     style="fill:#1d82d9;fill-rule:evenodd;fill-opacity:1;stroke:none;" />
  <path
     id="path95"
     d="  M 184,102   C 184,99.333333 184,99.333333 184,99.333333   C 188.33333,92 188.33333,92 188.33333,92   C 190.33333,93.333333 192.33333,94.333333 194.33333,95   C 191.66667,104.66667 191.66667,104.66667 191.66667,104.66667   C 189,104 186.66667,103 184,102   z  M 184,92   C 184,89.333333 184,89.333333 184,89.333333   C 184.33333,89.666667 184.66667,90 185.33333,90.333333   C 184,92 184,92 184,92   z  M 195,105.66667   C 198,106.66667 200.66667,107 203.66667,107   C 205.33333,97.666667 205.33333,97.666667 205.33333,97.666667   C 202.66667,97.333333 200,97 197.66667,96   C 195,105.66667 195,105.66667 195,105.66667   z  M 207.33333,107   C 210,107 212.33333,107 215,106.33333   C 216.33333,97 216.33333,97 216.33333,97   C 213.66667,97.333333 211.33333,97.666667 208.66667,97.666667   C 207.33333,107 207.33333,107 207.33333,107   z  M 218.33333,105.33333   C 221.33333,104.66667 224,103.66667 226.66667,102.33333   C 226.33333,94 226.33333,94 226.33333,94   C 224.33333,94.666667 222,95.666667 219.66667,96.333333   C 218.33333,105.33333 218.33333,105.33333 218.33333,105.33333   z  M 230,100.33333   C 232.66667,98.666667 235,97 237.33333,95   C 236,88.666667 236,88.666667 236,88.666667   C 234,90 232,91.333333 230,92.333333   C 230,100.33333 230,100.33333 230,100.33333   z  M 240.33333,92   C 242.66667,90 244.66667,87.333333 246.66667,84.333333   C 245,81.666667 245,81.666667 245,81.666667   C 243,83.333333 241,85 239,86.666667   C 240.33333,92 240.33333,92 240.33333,92   z  M 248.66667,81.333333   C 250.66667,78.333333 252,75.333333 253.33333,72   C 251.66667,74.333333 249.66667,76.666667 247.66667,79   z  M 184,89.333333   C 184,92 184,92 184,92   C 179.66667,99.666667 179.66667,99.666667 179.66667,99.666667   C 178,98.333333 176,97.333333 174,96   C 174,91.333333 174,91.333333 174,91.333333   C 179,85 179,85 179,85   C 180.66667,86.666667 182.33333,88 184,89.333333   z  M 184,99.333333   C 183,101.33333 183,101.33333 183,101.33333   C 183.33333,101.33333 183.66667,101.66667 184,102   C 184,99.333333 184,99.333333 184,99.333333   z  M 174,85.333333   C 176.33333,82.333333 176.33333,82.333333 176.33333,82.333333   C 175.66667,81.666667 174.66667,80.666667 174,80   z  M 165.33333,76   C 169,73 169,73 169,73   C 167.66667,71 166.33333,69 165.33333,67   C 165.33333,76 165.33333,76 165.33333,76   z  M 174,80   C 174,85.333333 174,85.333333 174,85.333333   C 169,92 169,92 169,92   C 167.66667,90.666667 166.66667,89.666667 165.33333,88.666667   C 165.33333,82 165.33333,82 165.33333,82   C 171.33333,76.666667 171.33333,76.666667 171.33333,76.666667   C 172.33333,77.666667 173.33333,79 174,80   z  M 174,91.333333   C 172,94.333333 172,94.333333 172,94.333333   C 172.66667,94.666667 173.33333,95.333333 174,96   z  M 151.66667,73   C 154,76.333333 156.33333,79 159,81.666667   C 165.33333,76 165.33333,76 165.33333,76   C 165.33333,67 165.33333,67 165.33333,67   C 165,66.333333 164.66667,65.666667 164.33333,65.333333   C 151.66667,73 151.66667,73 151.66667,73   z  M 165.33333,82   C 165.33333,88.666667 165.33333,88.666667 165.33333,88.666667   C 164.33333,87.333333 163,86.333333 162,85   z "
     style="fill:#191b1c;fill-rule:evenodd;fill-opacity:1;stroke:none;" />
  <path
     id="path97"
     d="  M 266.66667,67.333333   C 282.33333,65.666667 282.33333,65.666667 282.33333,65.666667   C 283,71 285,74.666667 288,77.333333   C 290.66667,79.666667 294.66667,80.666667 299.33333,80.666667   C 304.66667,80.666667 308.33333,79.666667 311,77.666667   C 313.66667,75.333333 314.66667,73 314.66667,70   C 314.66667,68 314.33333,66.666667 313.33333,65.333333   C 312,64 310.33333,62.666667 307.66667,61.666667   C 305.66667,61 301.33333,60 294.66667,58.333333   C 286.33333,56.333333 280.33333,53.666667 277,50.666667   C 272,46.333333 269.66667,41 269.66667,35   C 269.66667,31 270.66667,27 273,23.666667   C 275.33333,20 278.66667,17.666667 283,15.666667   C 287.33333,14 292.33333,13 298.33333,13   C 308.33333,13 315.66667,15 320.66667,19.333333   C 325.66667,23.666667 328.33333,29.666667 328.33333,36.666667   C 312.66667,37.666667 312.66667,37.666667 312.66667,37.666667   C 312,33.333333 310.66667,30.666667 308.33333,28.666667   C 306,27 302.66667,26 298.33333,26   C 293.66667,26 290,27 287.33333,29   C 285.66667,30 285,31.666667 285,33.666667   C 285,35.666667 285.66667,37.333333 287.33333,38.666667   C 289.33333,40.333333 294,42 301.66667,44   C 309.66667,45.666667 315.33333,47.666667 319,49.666667   C 322.66667,51.333333 325.33333,54 327.66667,57.333333   C 329.66667,60.666667 330.66667,65 330.66667,70   C 330.66667,74.333333 329.66667,78.666667 327,82.666667   C 324.33333,86.333333 321,89.333333 316.33333,91.333333   C 311.66667,93.333333 306,94.333333 299.33333,94.333333   C 289.33333,94.333333 281.66667,92 276.33333,87.333333   C 271,82.666667 268,76 266.66667,67.333333   z "
     style="fill:#1f1a17;fill-rule:nonzero;fill-opacity:1;stroke:none;" />
  <path
     id="path99"
     d="  M 87,92.666667   L 87,14.333333   L 145.33333,14.333333   L 145.33333,27.666667   L 103,27.666667   L 103,45   L 142.33333,45   L 142.33333,58.333333   L 103,58.333333   L 103,79.666667   L 147,79.666667   L 147,92.666667   L 87,92.666667  z   "
     style="fill:#1f1a17;fill-rule:nonzero;fill-opacity:1;stroke:none;" />
  <path
     id="path101"
     d="  M 75.333333,27.666667   C 65,37.666667 65,37.666667 65,37.666667   C 58.333333,31 50.666667,27.333333 42,27.333333   C 34.333333,27.333333 28,30 23,35   C 17.666667,40 15.333333,46.333333 15.333333,53.333333   C 15.333333,60.666667 18,67 23.333333,72.333333   C 28.666667,77.333333 35,80 43,80   C 48,80 52.333333,79 55.666667,77   C 59.333333,74.666667 62,71.333333 64.333333,66.666667   C 42,66.666667 42,66.666667 42,66.666667   C 42,53 42,53 42,53   C 80.666667,53 80.666667,53 80.666667,53   C 80.666667,56.333333 80.666667,56.333333 80.666667,56.333333   C 80.666667,63 79,69.333333 75.666667,75.333333   C 72,81.666667 67.666667,86.333333 62,89.333333   C 56.333333,92.666667 49.666667,94.333333 42.333333,94.333333   C 34.333333,94.333333 27.333333,92.333333 20.666667,89   C 14.666667,85.333333 9.6666667,80.333333 6,74   C 2.3333333,67.666667 0.33333333,60.666667 0.33333333,53.333333   C 0.33333333,43 4,34 10.666667,26.333333   C 18.666667,17.333333 29,13 42,13   C 48.666667,13 55,14.333333 60.666667,16.666667   C 65.666667,18.666667 70.666667,22.333333 75.333333,27.666667   z "
     style="fill:#1f1a17;fill-rule:nonzero;fill-opacity:1;stroke:none;" />
</svg>
